<?xml version="1.0" encoding="UTF-8"?>
<svg xmlns="http://www.w3.org/2000/svg" version="1.1" xmlns:xlink="http://www.w3.org/1999/xlink" viewBox="0 0 1007 1007">
  <defs>
    <style>
      .cls-1 {
        fill: url(#Gradiente_sem_nome_12);
      }

      .cls-2 {
        fill: #87afbe;
      }

      .cls-3 {
        fill: #24afcd;
      }

      .cls-4 {
        fill: url(#Gradiente_sem_nome_6);
      }

      .cls-5 {
        fill: #5bd6db;
      }

      .cls-6 {
        fill: #feffff;
      }
    </style>
    <linearGradient id="Gradiente_sem_nome_12" data-name="Gradiente sem nome 12" x1="192.7" y1="468.2" x2="813.8" y2="468.2" gradientUnits="userSpaceOnUse">
      <stop offset="0" stop-color="#2d6955"/>
      <stop offset="1" stop-color="#2a5c3d"/>
    </linearGradient>
    <linearGradient id="Gradiente_sem_nome_6" data-name="Gradiente sem nome 6" x1="121.8" y1="541.7" x2="885.2" y2="541.7" gradientUnits="userSpaceOnUse">
      <stop offset="0" stop-color="#5dd7d9"/>
      <stop offset="1" stop-color="#46ab7a"/>
    </linearGradient>
  </defs>
  <!-- Generator: Adobe Illustrator 28.6.0, SVG Export Plug-In . SVG Version: 1.2.0 Build 709)  -->
  <g>
    <g id="Camada_1">
      <g>
        <g>
          <path class="cls-6" d="M497.8,682.1c-1.2-.8-4.1-3.2-6.5-5.2-6.9-6-13.5-11-18.3-13.4-7.4-3.8-16.4-6.5-52-15.4-32.2-8-44.4-11.2-76-19.5-18.1-4.7-17.5-4.5-17.6-6.8-.1-1,.3-3.2.9-4.7,1.1-3.2,2.7-8.3,3.5-11.5.9-3.5,1.6-4,5.6-4s5.2.5,9.5,1.8c7,2,40.4,10.2,48.9,12,3.1.7,9.2,2,13.5,3s11.8,2.7,16.6,3.8c4.9,1.1,13.1,3.2,18.2,4.5,5.1,1.4,11.4,3,13.9,3.7,2.5.7,5.5,1.5,6.9,2,2,.6,3.2.4,1.9-.5-1-.6-11.9-20.2-22.8-41-11.8-22.5-13.4-25.5-13.8-26-.2-.2-2.4-4.3-4.8-9-2.4-4.7-5.4-10.3-6.5-12.5s-5.2-10-9-17.5c-3.8-7.4-8.1-15.6-9.5-18.2-5.2-9-5.8-11-3.5-13,1-1,10.3-5.7,11.2-5.7s3-2.5,6.2-5.7c10.1-9.8,13.6-16.5,15.9-30,1.5-8.6,1.6-10.4,2-19.8q.3-8.8,2.1-8.9c1.7-.1,2.1.2,7,5,7.4,7.4,15.6,13.8,25,19.5,8.6,5.4,22.3,10.9,30.6,12.4,11.8,2.2,29.8-4.8,48-18.5,8-6,14-11,19.1-15.6,2.5-2.5,3.4-2.9,4.9-2.9s1.8.1,1.8,1.5c0,3.4,2.7,23.8,3.8,29,4.3,20.3,12.7,31,30.5,39,7.5,3.4,7.5,2.4-1.5,19-14,25.9-21.6,39.8-25.1,46.5-2,3.7-5.2,9.8-7.2,13.5s-5.8,10.9-8.5,16c-5.5,10.5-11.8,22-19.1,35.2-2.8,5-4.9,9-4.8,9.1,0,0,3.5-.8,7.7-2,4.2-1.2,8.5-2.4,9.8-2.8,13.5-3.5,20-5,23.5-5.5,2.3-.3,4.9-.9,5.7-1.2,2-.9,10.3-2.8,12.3-2.8s2.2-.3,3-.7c.7-.4,3-1,5-1.3,2-.3,4.1-.8,4.7-1,2.2-.9,9.2-2.5,10.9-2.5s2-.2,2.1-.5c.2-.2,1.1-.5,2-.5s2.2-.3,2.8-.7,2.9-1.1,5.1-1.5c2.2-.5,4.5-1,5.2-1.3s2-.5,3-.5,2.2-.3,2.6-.7c.8-.7,11-3.3,12.8-3.3s1.2-.2,1.5-.5c.8-.8,10.2-3.2,13.2-3.4q2.8-.2,3.3,2.5c.3,1.5.9,4,1.3,5.7,1.3,5.5,1.8,9,1.8,12.2s0,3.2-2.1,4c-1.2.5-3.6,1.2-5.4,1.5-6,1.2-45,11.2-48.4,12.5-1.5.5-3.2,1-4,1s-4,.7-7.1,1.5c-3.2.8-10.3,2.7-16,4-5.7,1.3-14.8,3.6-20.2,5-5.5,1.4-11,2.7-12.2,3-7.1,1.5-21.5,6.1-25.2,8-7.9,4.1-10.1,5.3-11.4,6.2-4.2,3-9.5,7.3-12.7,10.3-4.6,4.3-6.8,5.5-10.5,5.5s-3.3-.2-5.1-1.5h0ZM563,550.6c2.2-1.9,2.3-2.8,2.3-18s-.2-14.5-.5-14.5-.5-5.8-.5-16.4c0-18.7-.2-20.4-3.2-23-1.3-1.2-2.2-1.5-3.8-1.5-3.2,0-15.8,5.2-17.4,7.2-.4.5-1,.8-1.5.8-1.8,0-12.5,5.8-19.8,10.8-4.5,3-4.9,3.1-11.4,1.8-3.8-.7-5-.8-8-.2-6.8,1.2-8.4,1.2-9.3.4-4-3.4-30.8-17-38.4-19.3-3.1-1-3.7-1-5-.5-2.1,1-3.6,3.5-4.1,6.8-.2,1.5-.4,16.2-.4,32.3,0,27.2.1,29.7,1,31.2,1.6,3.2,5.6,3.7,10.1,1.3.8-.4,1.9-.8,2.3-.8s1-.2,1.1-.5c.5-.7,9.6-5,10.7-5s1.8-.5,2.8-1.2,2-1.2,2-1.2c.1,0,1.5-.8,3-1.8s3.1-1.8,3.5-1.8,1.4-.5,2.1-1.2c1.8-1.5,4.4-2.8,5.5-2.8s1.9-.6,3.1-1.3c2.1-1.3,2.6-1.3,9-1.5,3.8,0,7.6-.3,8.7-.7,3.9-1,7-.7,9.8,1.2,7,4.5,24.1,13.5,32.7,17.2,8.2,3.5,11.2,4,13.5,2.2Z"/>
          <path class="cls-6" d="M492.6,445c-12.4-1.4-24.4-5.8-36.6-13.5-19.6-12.3-35.2-28.3-49.6-51.2-7.3-11.5-13.5-26-19.1-44.8-.5-1.9-.9-2.2-2.1-2.5-11-2.3-23.2-28-24-50.8-.3-8.3.2-10.5,3-13.1,3.7-3.6,5.1-4.1,11.3-4.1s5.9.1,6.3.3c.4.2,1.1,1,1.6,1.9q.8,1.6,1.2.4c.2-.7.3-3.4.1-6-.5-8.2,2-23.5,5.4-32.3,3-7.8,8.5-16.2,12.7-19.4,1-.8,3.4-2.9,5.4-4.8,2.4-2.2,4.4-3.6,5.4-3.8,1-.2,2.5-1.1,3.5-1.9,1-.9,3.2-2.1,5-2.8,1.8-.6,3.7-1.4,4.2-1.7s3.5-.6,6.5-.8c6.4-.2,7.2-.7,7.2-3.6s1.1-3.5,4.6-3.5,3.7.4,6.5,1.7c17.4,8.1,22.2,10.1,32.9,13.4,5.2,1.6,14.4,3.4,22.1,4.2,11.5,1.3,34.4.4,37.3-1.5.4-.2,2.4-.6,4.5-.7,2.7-.1,4.1-.5,4.8-1.1,1.2-1.1,4.3-2,7-2s2.8-.4,3.5-.8c.8-.4,1.8-.8,2.2-.8s1.1-.4,1.5-.8c.3-.4,1-.8,1.5-.8s1.4-.4,2.1-.9c1.2-.9,7.1-3.6,8-3.6s1.5-.9,2.7-2,2.6-2,3.2-2,1.2-.4,1.5-.8c1.2-1.4,5.7-.9,9.2.9,3.7,1.9,10.7,8.5,13.3,12.4,7,10.4,10.8,25,13.1,50.5.3,4,.7,9,.7,11.1q0,3.9,1.2,2.8c1.5-1.5,5-2.3,9.5-2.4,4.3,0,5.8.6,8.5,3.8,2.7,3,3.5,6,3.5,12.4,0,14.5-6.2,33.5-14.7,44.5-3.3,4.4-6.2,6.4-9.4,6.6q-2.5.2-4.2,6c-7.2,23-18.7,44.5-32.7,61.3-20.7,24.8-44.8,40.9-67.6,45.3-5.9,1.1-17.8,1.6-23.6,1h0Z"/>
        </g>
        <g>
          <path class="cls-2" d="M440.5,542.3c-.4-2,0-7.5.5-8,.1-.2.6-.2,1.1,0,1.2.5.9,9.5-.4,9.7-.6,0-1-.3-1.2-1.7Z"/>
          <path class="cls-2" d="M564.5,521.9c.2-10.8.3-23,.3-27.3s.2-7.7.5-7.7.5,5.3.6,14.9q.2,14.8.4.6c.2-12.2.3-10.4.4,12.4q0,26.6-1.2,26.6t-1-19.6Z"/>
          <path class="cls-2" d="M440.6,531.4c-.4-1.5-.4-35,0-38.8.3-2.5.5-3,1.2-3s1,.8,1,20.7-.1,21-.3,21.5c-.5,1.2-1.5,1-1.9-.3h0Z"/>
          <path class="cls-2" d="M499.8,463.5c-18.7-2.6-42.1-15.2-59.7-32.3-5-4.9-6.2-5.6-6.2-3.9s-.4.7-.8.7c-.8,0-.8-.5-.5-3.9.2-2.1.3-5.5.3-7.8,0-3.4.1-3.9.9-3.9s3.1,1.9,5.8,4.1c26.4,22.2,51.6,30.6,77.3,25.9,16-3,32.5-11.5,50.7-26.4,2.4-2,4.9-3.6,5.4-3.6,1,0,1.1.4,1.4,5.9.2,3.2.5,7.7.6,10,.3,3.9.3,4.1-.7,4.1s-1.6-1.2-1.6-4.4-.2-2.1-.3-2.1-1.7,1.3-3.5,2.9c-8.2,7.4-23.9,19.4-30.5,23.1-15,8.5-29.1,12.7-38.6,11.4Z"/>
        </g>
        <g>
          <path class="cls-3" d="M440.9,532.3c.2-3.5.5-4.1,1.6-3.6.6.2.8.9.6,3.4-.1,2.9-.2,3.2-1.4,3.3-1.1.2-1.1,0-1-3.1h0Z"/>
          <path class="cls-3" d="M441.3,511.3c0-16.4,0-16.8,1-16.8s1,.3,1,16.8,0,16.8-1,16.8-1-.3-1-16.8Z"/>
        </g>
        <path class="cls-5" d="M554.8,552.6c-8.2-2.8-29.3-13.5-39.4-19.8-2.9-1.8-3.9-2-6.6-1.2-1,.3-4.9.6-8.7.7-6.6,0-7.1.2-9.2,1.5-1.2.8-2.6,1.3-3.1,1.3-1.1,0-3.7,1.3-5.5,2.8-.8.7-1.8,1.2-2.1,1.2s-2,.8-3.5,1.8-2.8,1.8-3,1.8-1,.5-2,1.2-2.2,1.2-2.8,1.2c-1,0-10.2,4.3-10.7,5-.1.2-.6.5-1,.5s-1.8.5-3,1c-3.1,1.5-7.5,1.8-9.9.8-3-1.2-3.4-2.7-3.2-11,.1-3.9.4-7.5.5-7.9.2-.6.1-18.1-.4-47.3,0-5.3.5-7,2.6-9,1.8-1.5,5.4-1.6,9.9,0,8.1,2.7,33.9,15.8,37.9,19.2.8.7,1.1.7,2.5.2,2.8-1.1,10.6-1.2,15.1-.3q4,.8,8-1.8c7.3-5,18-10.8,19.8-10.8s1-.3,1.5-.8c.8-1,5.6-3.4,11-5.5,3.5-1.3,5.1-1.7,7.8-1.7s3.7.2,5.3,1.5c3.2,2.8,3.2,3.2,3.2,34.8s.2,28.2.5,28.2.5,1.8.5,4.2c0,6.5-1.5,8.6-6.3,9-2.1.2-3.7,0-5.7-.7h0Z"/>
        <g>
          <path class="cls-1" d="M280.4,837.1c-17.1-13-33.4-27.2-49.9-43.8-12.4-12.4-20.8-22.1-31.9-36.8-4.5-5.9-6.1-8.5-5.9-9,.2-.4.6-2.1.7-3.8,1.2-13,5.6-49,7.4-60.2.6-3.7,1.2-8.3,1.5-10.2,1.9-13.8,5.9-36.7,8.2-45.8,3.6-14.5,9.8-29.1,18-42.7,8-13.2,12.8-19.7,22.6-30.1,13.2-14,31.4-25.9,52.5-34.3,12.7-5,32.6-10.5,66.2-18.3,8.4-2,17.1-4.1,19.5-4.8,2.4-.7,5.5-1.4,7-1.5q2.8-.2,1.9.8c-1,1.2-1,1.3,3.9,9.7,1.5,2.5,5.8,10.8,9.5,18.2,3.8,7.5,7.9,15.3,9,17.5s4.1,7.8,6.5,12.5c2.4,4.7,4.5,8.8,4.8,9,.4.5,1.9,3.3,13.8,26,11.8,22.4,19.2,35.8,24,43,1.2,1.9,2.2,3.6,2,3.7-.1,0-2.9-.6-6.1-1.6-3.2-1-7.9-2.3-10.4-3-16.6-4.4-25-6.5-31.8-8-4.2-1-11.2-2.5-15.5-3.5s-10.4-2.3-13.5-3c-8.5-1.8-41.8-10-48.9-12-9.4-2.7-11-2.4-12.1,2.2-.9,3.2-2.4,8.3-3.6,11.6-1,2.9-.9,3.9.4,3.9s.7.3.7.8c0,1.2-2.2,1-10.2-1-4-1-8.2-1.9-9.5-2-2.5-.4-2.4-1.4-1,8.3.4,2.9,1.5,11.5,2.5,19.2,1,7.7,2,16.7,2.5,20,.4,3.3,1.1,9.4,1.5,13.5.4,4.2,1,9.3,1.2,11.5.3,2.2,1.2,9.7,2,16.5.9,6.9,2,15.8,2.5,19.8.5,4,1.3,10.4,1.8,14.2s1.1,9.8,1.5,13.2c.4,3.5,1,9.3,1.5,13,1.2,11.5,3.2,27.7,3.5,28.5.1.4.5,4.8,1,9.7.5,6.2,1,9.1,1.4,9.3.5.3.4.6-.4,1.2-.5.5-1.1.8-1.4.8s-1.5,1-2.8,2.2c-1.5,1.3-3.5,2.5-4.8,2.9-1.5.4-3.8,1.8-5.9,3.5-2,1.6-4,2.9-4.5,2.9-1.2,0-2.7.8-4.9,2.6-1,.8-2,1.4-2.3,1.4s-1,.5-1.5,1-1,1-1.2,1c-.5,0-6,3.3-7,4.2-.5.4-1.4.8-2,.8s-1.5.3-2,.7c-2.2,2-2.9,1.7-12-5.2h0Z"/>
          <path class="cls-1" d="M382.6,269.9c-2.4-3-2.8-3.4-4.3-3.4s-1.5-.1-1.4-1.6c0-.9-.5-3.6-1.2-6.1-4-14-5.6-27.1-5.2-43,.5-15.9,1.9-24.9,6.2-38,2.2-6.9,2.9-8.1,4.2-8.4.9-.1,1.7-1.1,3.2-3.9,7.4-13.4,14.7-23,21.7-28.6,9.4-7.6,18.4-11.6,28.4-12.6q3.2-.4,5.6-3.6c6.4-8.7,19.4-17.1,34.8-22.4,4.5-1.6,16-3.9,22.8-4.7,6.4-.7,22.9-.3,29.2.7,6.8,1.1,12.8,2.6,19.8,5,5.3,1.8,6,2.1,4.5,2.2-1,.1-2.1.4-2.5.9-.5.4-3,.8-6.5.9-3.2.2-6.2.6-6.6.9-.5.2-1.7.4-2.7.4-1.5,0-13.5,3.5-14.9,4.4-.2.1,0,.6.5.9.8.6,1.8.5,6.3-.3,16.5-2.9,31.7-2.4,42.4,1.5,8.1,2.9,18.3,10.4,32.3,23.4,8.7,8,15,16.6,21,28.3,1.7,3.3,3.4,6.2,3.8,6.4.4.2.6.6.4.9-.2.3.2,1.6.7,3.1,1.5,3.6,4.3,13.3,5.5,18.4,2.3,9.9,2.8,14.5,2.8,29.5,0,16.4-.5,20.2-4.5,36-2,7.8-2.4,8.8-4.8,11.5-3.4,3.7-4,3.3-3.8-2.9.3-13.6-3.4-38.9-7.4-49.5-3.5-9.5-6.2-13.6-12.3-19.5-6.2-5.8-11.7-8.5-13.4-6.4-.3.4-1,.8-1.5.8s-2,.9-3.2,2-2.4,2-2.7,2c-1,0-6.9,2.6-8,3.6-.7.5-1.7.9-2.1.9s-1.2.4-1.5.8-1,.8-1.5.8-1.5.4-2.2.8c-.8.4-2.3.8-3.5.8-2.7,0-5.8.9-7,2-.7.6-2.1.9-4.8,1.1-2.1.1-4.1.4-4.5.7-1.7,1-8.5,1.8-20.5,2-20.6.5-32.5-1.3-51.2-7.8-5.3-1.8-9.6-3.7-23.6-10.3-2-.9-4.3-1.7-5-1.7-1.9,0-3.1,1.4-3.1,3.6s-1,3.2-7.2,3.5c-3,.1-6,.4-6.5.8s-2.5,1.1-4.2,1.7c-1.8.6-4,1.9-5,2.8-1,.9-2.5,1.8-3.5,1.9-1,.2-3,1.6-5.4,3.8-2,1.9-4.5,4-5.4,4.8-4.1,3.1-9.7,11.6-12.7,19.4-3.4,8.9-5.8,22.9-5.2,31.5.4,5.5-.3,9.4-1.5,9.4s-1.3-.8-2-1.6h0Z"/>
          <path class="cls-1" d="M726.1,837.1c17.1-13,33.4-27.2,49.9-43.8,12.4-12.4,20.8-22.1,31.9-36.8,4.5-5.9,6.1-8.5,5.9-9-.2-.4-.6-2.1-.7-3.8-1.2-13-5.6-49-7.4-60.2-.6-3.7-1.2-8.3-1.5-10.2-1.9-13.8-5.9-36.7-8.2-45.8-3.6-14.5-9.8-29.1-18-42.7-8-13.2-12.8-19.7-22.6-30.1-13.2-14-31.4-25.9-52.5-34.3-12.7-5-32.6-10.5-66.2-18.3-8.4-2-17.1-4.1-19.5-4.8-2.4-.7-5.5-1.4-7-1.5q-2.8-.2-1.9.8c1,1.2,1,1.3-3.9,9.7-1.5,2.5-5.8,10.8-9.5,18.2-3.8,7.5-7.9,15.3-9,17.5s-4.1,7.8-6.5,12.5c-2.4,4.7-4.5,8.8-4.8,9-.4.5-1.9,3.3-13.8,26-11.8,22.4-19.2,35.8-24,43-1.2,1.9-2.2,3.6-2,3.7.1,0,2.9-.6,6.1-1.6,3.2-1,7.9-2.3,10.4-3,16.6-4.4,25-6.5,31.8-8,4.2-1,11.2-2.5,15.5-3.5s10.4-2.3,13.5-3c8.5-1.8,41.8-10,48.9-12,9.4-2.7,11-2.4,12.1,2.2.9,3.2,2.4,8.3,3.6,11.6,1,2.9.9,3.9-.4,3.9s-.7.3-.7.8c0,1.2,2.2,1,10.2-1,4-1,8.2-1.9,9.5-2,2.5-.4,2.4-1.4,1,8.3-.4,2.9-1.5,11.5-2.5,19.2-1,7.7-2,16.7-2.5,20-.4,3.3-1.1,9.4-1.5,13.5-.4,4.2-1,9.3-1.2,11.5-.3,2.2-1.2,9.7-2,16.5-.9,6.9-2,15.8-2.5,19.8-.5,4-1.3,10.4-1.8,14.2s-1.1,9.8-1.5,13.2c-.4,3.5-1,9.3-1.5,13-1.2,11.5-3.2,27.7-3.5,28.5-.1.4-.5,4.8-1,9.7-.5,6.2-1,9.1-1.4,9.3-.5.3-.4.6.4,1.2.5.5,1.1.8,1.4.8s1.5,1,2.8,2.2c1.5,1.3,3.5,2.5,4.8,2.9,1.5.4,3.8,1.8,5.9,3.5,2,1.6,4,2.9,4.5,2.9,1.2,0,2.7.8,4.9,2.6,1,.8,2,1.4,2.3,1.4s1,.5,1.5,1,1,1,1.2,1c.5,0,6,3.3,7,4.2.5.4,1.4.8,2,.8s1.5.3,2,.7c2.2,2,2.9,1.7,12-5.2h0Z"/>
        </g>
        <g>
          <path class="cls-4" d="M191.6,747.1c-20-29-36.8-61.2-46.8-89.7-7.7-21.9-11.8-36.8-15.7-55.9-3.8-19-5.4-31-6.8-52-.7-9.3-.7-35.2,0-42,.2-2.8.7-8.3,1-12,1.4-17.3,5.8-43,10.1-59.5,3.6-13.8,6.4-22.6,12.1-38.2,28.8-79,85.9-148.2,158.6-192.2,1.6-.9,3.7-2.3,4.7-2.9,6.8-4.4,28.5-15.4,43.4-21.8,3-1.3,6.6-2.9,8-3.5,3.5-1.6,20.1-7.8,20.8-7.8s.5.9-2,8c-4.5,12.4-6.4,23.1-6.9,38.2-.5,14.7,1.2,27.3,5.6,43.1,2.1,7.5,2,7.6-2.9,7.6s-6,.9-9.3,4.1c-1.8,1.7-2.2,2.5-2.9,5.5-.8,3.5-.9,7.2-.1,7.6.2.1.4,1,.4,2,0,2.6,1.9,11.1,3.5,16.6,5.4,16.8,12.9,27.5,20.2,29,1.2.2,1.6.6,2.1,2.5,9.6,32.4,20.3,51,43,75.5,2.5,2.8,3.9,4.5,3.4,4.5s-.8.7-.9,4.4c-.2,17.9-.8,26.5-2.5,36.4-2.4,13.6-5.8,20.2-15.9,30.1-3.2,3.1-6,5.7-6.2,5.7-.8,0-10.1,4.6-11.1,5.5-.5.5-1.5,1-2.2,1.2s-3.1.9-5.5,1.6c-2.4.7-11.1,2.8-19.5,4.8-33.6,7.8-53.5,13.3-66.2,18.3-21.1,8.4-39.2,20.2-52.4,34.3-9.8,10.5-14.6,16.8-22.6,30.1-8.2,13.6-14.4,28.2-18,42.7-2.3,9.2-6.4,32-8.2,45.8-.2,2-.9,6.5-1.5,10.2-1.2,8.1-4.6,34.5-6.1,48-.6,5.3-1.2,11.2-1.4,12.9-.2,1.7-.6,3.3-.9,3.5-.2.3-1.2-.7-2.4-2.3h0Z"/>
          <path class="cls-4" d="M815.4,747.1c20-29,36.8-61.2,46.8-89.7,7.7-21.9,11.8-36.8,15.7-55.9,3.8-19,5.4-31,6.8-52,.7-9.3.7-35.2,0-42-.2-2.8-.7-8.3-1-12-1.4-17.3-5.8-43-10.1-59.5-3.6-13.8-6.4-22.6-12.1-38.2-28.8-79-85.9-148.2-158.6-192.2-1.6-.9-3.7-2.3-4.7-2.9-6.8-4.4-28.5-15.4-43.4-21.8-3-1.3-6.6-2.9-8-3.5-3.5-1.6-20.1-7.8-20.8-7.8s-.5.9,2,8c4.5,12.4,6.4,23.1,6.9,38.2.5,14.7-1.2,27.3-5.6,43.1-2.1,7.5-2,7.6,2.9,7.6s6,.9,9.3,4.1c1.8,1.7,2.2,2.5,2.9,5.5.8,3.5.9,7.2.1,7.6-.2.1-.4,1-.4,2,0,2.6-1.9,11.1-3.5,16.6-5.4,16.8-12.9,27.5-20.2,29-1.2.2-1.6.6-2.1,2.5-9.6,32.4-20.3,51-43,75.5-2.5,2.8-3.9,4.5-3.4,4.5s.8.7.9,4.4c.2,17.9.8,26.5,2.5,36.4,2.4,13.6,5.8,20.2,15.9,30.1,3.2,3.1,6,5.7,6.2,5.7.8,0,10.1,4.6,11.1,5.5.5.5,1.5,1,2.2,1.2s3.1.9,5.5,1.6c2.4.7,11.1,2.8,19.5,4.8,33.6,7.8,53.5,13.3,66.2,18.3,21.1,8.4,39.2,20.2,52.4,34.3,9.8,10.5,14.6,16.8,22.6,30.1,8.2,13.6,14.4,28.2,18,42.7,2.3,9.2,6.4,32,8.2,45.8.2,2,.9,6.5,1.5,10.2,1.2,8.1,4.6,34.5,6.1,48,.6,5.3,1.2,11.2,1.4,12.9.2,1.7.6,3.3.9,3.5.2.3,1.2-.7,2.4-2.3h0Z"/>
          <path class="cls-4" d="M497.3,912.2c-11.8-4.8-30.4-11.5-39.5-14.2-5.6-1.7-15.8-4.7-22.5-6.8-22.2-6.7-51.1-14.9-62.2-17.8-2.5-.7-4.6-1.2-4.7-1.3-.5-.4,8.9-9,26-24,10.9-9.4,11.7-10.1,22.2-19,12.5-10.5,16.5-14.2,26.3-24,11.2-11.5,16.4-17.3,23.3-26.7,7.5-10.3,12-18,14-24.5,2.6-8.3,2.6-8.5,2.4-12-.5-4.2-1.6-6.9-4.2-9.8-2.5-2.7-6-4.1-9.1-3.6-2.8.5-8.7,3.7-13,7.2-2,1.5-4.5,3.5-5.8,4.3-1.2.8-3.9,3-5.9,4.9-2,1.8-3.8,3.3-4,3.3s-1,.5-1.6,1.2-1.4,1.2-1.6,1.2-1.8,1-3.3,2.2c-4.3,3.4-7.5,5.8-7.9,5.8s-1.4.9-2.7,2c-2.1,1.8-3.5,2.5-3.5,1.8s2.8-5.7,5.2-9.2c1.5-2.2,3.2-5,3.8-6,2.4-4.6,2.1-9.5-.6-11.7-2.4-2-4.9-.9-11.6,5.2-2,1.8-4.8,4.2-6.1,5.3-3.8,3.2-13.2,14.2-17,19.8-3.9,5.8-5.8,10.3-7,16.9-.5,2.6-1.1,5-1.4,5.3s-1.6,1.2-3.1,1.8c-1.5.7-3.9,2-5.3,3-1.5.9-3.8,2.2-5.1,2.9-3.6,1.8-8,4.3-10,5.7-1,.7-2.1,1.2-2.4,1.2s-1.1.5-1.8,1c-.7.5-1.5,1-1.8,1s-2,.9-3.8,2c-1.8,1.1-3.5,2.2-4,2.3-.4.2-1.5,1-2.5,1.8-1,.8-2.1,1.4-2.5,1.4s-2.9,1.3-5.8,3c-2.8,1.7-5.5,3-5.8,3s-.7-.5-.7-1.1c0-3.2-.9-13.7-1.5-17.9-.7-4.8-2.1-16.1-3.5-28.5-.8-6.5-1.5-13.2-3-26.8-.4-3.5-1.2-9.8-1.7-13.8-.5-4-1.6-12.8-2.5-19.8-.8-6.8-1.7-14.3-2-16.5-.2-2.2-.9-7.3-1.2-11.5-1-8.8-2.1-18.5-7.1-57.4-1-7.8-1-7.8,3.7-6.9,4.1.8,17,3.8,20.4,4.8,2.4.8,10.4,2.8,42.2,11.1,7.9,2,29.5,7.5,48.2,12.2,35.6,9,44.6,11.6,52,15.4,4.8,2.5,11.5,7.3,18.3,13.4,5.4,4.8,8.3,6.7,10.1,6.7s5.1-1.8,9-5.5c3.1-3,8.5-7.2,12.7-10.3,1.3-.9,3.5-2.1,11.4-6.2,3.8-2,18.2-6.5,25.2-8,1.2-.2,6.8-1.5,12.2-3,5.5-1.3,14.6-3.6,20.2-5,5.7-1.4,12.8-3.2,16-4,3.2-.8,6.3-1.5,7.1-1.5s2.5-.5,4-1c2.5-1,9.7-2.8,35.7-9.5,5.2-1.3,10.8-2.7,12.5-3s3.9-.9,5-1.3c1.1-.4,2.7-.8,3.5-1,.8,0,5.3-1,10-2,4.7-1,9.6-1.9,10.9-2,2.3-.2,2.4-.2,2.2,1-.3,1.2-1.3,8.9-2.5,18.2-.4,3-1.2,9.7-2,14.8s-2.4,18.2-3.8,29.2c-2.5,20-4.1,32-6,45.8-1.2,8.7-2.7,20.5-4,32.5-.5,4.8-1.5,13.6-2.2,19.5-2.4,20.3-2.8,23.8-3.5,30.4-.3,3.7-.9,6.9-1.2,7.2-.5.5-5.5-2-15.2-8-2.9-1.8-7.4-4.3-10-5.8-10.5-5.7-25.3-14.3-26-15.2-.5-.5-1.1-2.7-1.4-4.8-1.5-9.4-5.5-16.7-15.5-27.9-9.5-10.7-17.8-18.3-22.1-20-2.9-1.2-5.5,0-6.8,3-1.5,3.7-.5,7,4.7,14.7,4.2,6.2,6.3,10,5.7,10-.8,0-14.2-10-23-17.2-16.8-13.7-22.2-17-27.5-17-1.8,0-3.2.3-3.7.8-.5.4-1.6,1-2.4,1.2-2,.7-4.6,4.5-5.7,8.2-2.2,7.3,1.2,17.5,9.9,30.6,13.9,21,30.3,38.7,57.1,61.7,18.7,16,23.5,20.2,44,38.9q2.5,2.3,1,3c-.8.3-1.9.8-2.3,1-.5.2-1.5.5-2.2.5-1.7,0-7.5,1.5-10.7,2.8-1.2.5-3.6,1-5.2,1.2s-3.9.8-5,1.2-3,.9-4.2,1.1c-1.2.2-2.2.5-2.3.8-.2.2-1.5.7-3.2,1-6,1.2-9.8,2.2-10.3,2.5-.2.2-1.8.7-3.2,1s-4.7,1.2-7,1.8c-2.3.7-5,1.5-6,1.7-5.8,1.5-11.3,3.2-11.8,3.5-.2.2-1,.5-1.5.5s-1.2.2-1.4.5c-.2.2-1.3.5-2.5.7-5,.7-31.7,9.2-33.7,10.8-.7.5-2.2,1.1-3.4,1.3-1.2.2-2.5.6-2.8,1-.4.3-1.5.8-2.8,1-1.2.2-2.5.6-2.8,1s-.9.7-1.3.7-1.3.5-2,1-1.7,1-2.1,1-1.7.3-2.6.8c-2.6,1-4,.9-8.9-1h0Z"/>
        </g>
      </g>
    </g>
  </g>
</svg>